<svg width="135" height="40" viewBox="0 0 135 40" fill="none" xmlns="http://www.w3.org/2000/svg">
<g clip-path="url(#clip0_807_150)">
<path d="M123.902 0H10.727C10.3141 0 9.90577 0 9.49515 0.002C9.1509 0.004 8.8089 0.01 8.46127 0.015C7.7064 0.023 6.95265 0.082 6.20677 0.19C5.46284 0.302207 4.74222 0.513588 4.06927 0.817C3.05685 1.27724 2.18057 1.94292 1.51136 2.76014C0.842156 3.57737 0.398831 4.52317 0.217273 5.521C0.0920924 6.18271 0.024766 6.85205 0.0158984 7.523C0.00464844 7.83 0.00464844 8.138 -0.000976562 8.444V31.56C0.00464844 31.87 0.00577344 32.17 0.0158984 32.481C0.0248984 33.152 0.0923984 33.821 0.218398 34.483C0.342148 35.146 0.578398 35.789 0.920398 36.388C1.26127 36.986 1.70902 37.531 2.24677 38.002C2.7789 38.479 3.39315 38.877 4.06702 39.181C4.7409 39.485 5.46202 39.698 6.20565 39.811C6.95152 39.921 7.70527 39.979 8.46015 39.988C8.8089 39.995 9.14977 39.999 9.49402 39.999C9.90577 40.001 10.313 40.001 10.7259 40.001H123.901C124.305 40.001 124.715 40.001 125.12 39.999C125.462 39.999 125.815 39.995 126.158 39.989C126.911 39.979 127.663 39.921 128.408 39.811C129.154 39.6965 129.878 39.4842 130.554 39.181C131.228 38.8762 131.842 38.4775 132.374 38C132.91 37.5272 133.359 36.9826 133.704 36.386C134.044 35.786 134.278 35.144 134.401 34.481C134.525 33.82 134.595 33.151 134.609 32.479C134.613 32.169 134.613 31.869 134.613 31.558C134.622 31.194 134.622 30.833 134.622 30.464V9.536C134.622 9.17 134.622 8.806 134.613 8.444C134.613 8.138 134.613 7.83 134.609 7.524C134.595 6.85268 134.526 6.18317 134.401 5.521C134.278 4.85907 134.043 4.21747 133.704 3.618C133.01 2.41508 131.908 1.43588 130.555 0.818C129.879 0.5153 129.155 0.303975 128.409 0.191C127.665 0.081 126.913 0.022 126.159 0.015C125.816 0.01 125.464 0.004 125.122 0.002C124.717 0 124.306 0 123.902 0V0Z" fill="#A6A6A6"/>
<path d="M9.50092 39.125C9.1578 39.125 8.82367 39.121 8.48392 39.115C7.77908 39.1066 7.07591 39.0517 6.38017 38.951C5.73199 38.8516 5.10409 38.6669 4.51717 38.403C3.93542 38.1414 3.40477 37.7984 2.94555 37.387C2.47989 36.9801 2.09227 36.5082 1.79805 35.99C1.49999 35.4687 1.2936 34.9099 1.18605 34.333C1.0705 33.7131 1.00807 33.0863 0.999297 32.458C0.991422 32.248 0.982422 31.545 0.982422 31.545V8.445C0.982422 8.445 0.992547 7.753 0.999297 7.55C1.00768 6.92272 1.06974 6.29691 1.18492 5.678C1.2925 5.09953 1.49888 4.53906 1.79692 4.016C2.08942 3.498 2.4753 3.026 2.9388 2.618C3.86983 1.78636 5.07274 1.23756 6.37567 1.05C7.07317 0.95 7.77967 0.895 8.48617 0.887L9.50092 0.875H125.116L126.143 0.888C126.844 0.895168 127.542 0.949321 128.233 1.05C128.887 1.14865 129.521 1.33334 130.113 1.598C131.281 2.1326 132.231 2.97888 132.83 4.018C133.124 4.53741 133.327 5.09342 133.432 5.667C133.549 6.291 133.614 6.922 133.628 7.554C133.631 7.837 133.631 8.142 133.631 8.444C133.64 8.819 133.64 9.176 133.64 9.536V30.465C133.64 30.828 133.64 31.183 133.631 31.54C133.631 31.865 133.631 32.163 133.627 32.47C133.614 33.09 133.549 33.71 133.434 34.323C133.33 34.9041 133.125 35.4675 132.827 35.993C132.531 36.5056 132.145 36.9733 131.685 37.379C131.225 37.7926 130.693 38.1377 130.11 38.401C129.519 38.6672 128.886 38.8526 128.233 38.951C127.538 39.052 126.835 39.107 126.131 39.114C125.801 39.121 125.457 39.125 125.122 39.125L123.902 39.127L9.50092 39.125V39.125Z" fill="black"/>
<path d="M32.7975 18.863C32.8082 18.0285 33.0299 17.2103 33.4418 16.4846C33.8537 15.7588 34.4426 15.149 35.1535 14.712C34.702 14.0669 34.1062 13.536 33.4136 13.1614C32.721 12.7868 31.9506 12.5788 31.1635 12.554C29.4835 12.378 27.8555 13.559 26.9995 13.559C26.1275 13.559 24.8095 12.571 23.3915 12.601C22.4739 12.6305 21.5796 12.8972 20.7957 13.3751C20.0118 13.853 19.3651 14.5258 18.9185 15.328C16.9845 18.677 18.4265 23.598 20.2795 26.305C21.2065 27.63 22.2895 29.11 23.7075 29.058C25.0945 29 25.6125 28.173 27.2875 28.173C28.9455 28.173 29.4315 29.058 30.8775 29.025C32.3665 29 33.3035 27.693 34.1975 26.355C34.864 25.4109 35.377 24.3673 35.7175 23.263C34.8525 22.8973 34.1144 22.2851 33.5951 21.5026C33.0758 20.7201 32.7984 19.8021 32.7975 18.863ZM30.0655 10.773C30.877 9.799 31.277 8.54708 31.1805 7.283C29.9405 7.41318 28.795 8.0059 27.9725 8.943C27.5706 9.40069 27.2628 9.93309 27.0667 10.5098C26.8705 11.0865 26.79 11.6962 26.8295 12.304C27.4495 12.3102 28.0628 12.1758 28.6233 11.9108C29.1838 11.6458 29.6769 11.2571 30.0655 10.774V10.773ZM50.3305 25.703H45.5985L44.4615 29.059H42.4565L46.9405 16.641H49.0235L53.5065 29.059H51.4675L50.3315 25.703H50.3305ZM46.0875 24.153H49.8395L47.9895 18.707H47.9385L46.0885 24.154L46.0875 24.153ZM63.1885 24.533C63.1885 27.346 61.6825 29.153 59.4095 29.153C58.8341 29.183 58.2618 29.0505 57.7582 28.7705C57.2545 28.4906 56.8399 28.0745 56.5615 27.57H56.5185V32.054H54.6585V20.005H56.4585V21.511H56.4915C56.7826 21.0086 57.2044 20.5946 57.7121 20.3128C58.2197 20.0311 58.7942 19.8922 59.3745 19.911C61.6725 19.911 63.1875 21.727 63.1875 24.533H63.1885ZM61.2785 24.533C61.2785 22.7 60.3305 21.495 58.8855 21.495C57.4655 21.495 56.5105 22.725 56.5105 24.533C56.5105 26.357 57.4655 27.579 58.8855 27.579C60.3305 27.579 61.2775 26.382 61.2775 24.533H61.2785ZM73.1525 24.533C73.1525 27.346 71.6475 29.153 69.3745 29.153C68.7991 29.183 68.2268 29.0505 67.7232 28.7705C67.2195 28.4906 66.8049 28.0745 66.5265 27.57H66.4835V32.054H64.6245V20.005H66.4235V21.511H66.4575C66.7486 21.0086 67.1704 20.5946 67.6781 20.3128C68.1857 20.0311 68.7602 19.8922 69.3405 19.911C71.6385 19.911 73.1535 21.727 73.1535 24.533H73.1525ZM71.2425 24.533C71.2425 22.7 70.2955 21.495 68.8505 21.495C67.4305 21.495 66.4755 22.725 66.4755 24.533C66.4755 26.357 67.4305 27.579 68.8505 27.579C70.2955 27.579 71.2425 26.382 71.2425 24.533ZM79.7385 25.599C79.8765 26.831 81.0735 27.639 82.7085 27.639C84.2745 27.639 85.4015 26.83 85.4015 25.72C85.4015 24.756 84.7215 24.18 83.1115 23.784L81.5025 23.396C79.2225 22.846 78.1635 21.779 78.1635 20.048C78.1635 17.906 80.0305 16.434 82.6825 16.434C85.3065 16.434 87.1055 17.906 87.1655 20.048H85.2895C85.1775 18.809 84.1535 18.061 82.6555 18.061C81.1585 18.061 80.1345 18.818 80.1345 19.919C80.1345 20.797 80.7885 21.314 82.3895 21.709L83.7575 22.045C86.3055 22.648 87.3635 23.671 87.3635 25.488C87.3635 27.811 85.5135 29.266 82.5705 29.266C79.8165 29.266 77.9565 27.846 77.8365 25.599H79.7385V25.599ZM91.3745 17.863V20.005H93.0965V21.477H91.3745V26.468C91.3745 27.244 91.7195 27.605 92.4765 27.605C92.6805 27.601 92.8845 27.587 93.0875 27.562V29.025C92.7475 29.089 92.4015 29.117 92.0555 29.111C90.2225 29.111 89.5075 28.422 89.5075 26.667V21.477H88.1915V20.005H89.5075V17.863H91.3745V17.863ZM94.0935 24.533C94.0935 21.684 95.7715 19.894 98.3875 19.894C101.013 19.894 102.683 21.684 102.683 24.533C102.683 27.389 101.022 29.171 98.3875 29.171C95.7545 29.171 94.0935 27.389 94.0935 24.533ZM100.789 24.533C100.789 22.579 99.8935 21.425 98.3875 21.425C96.8815 21.425 95.9875 22.587 95.9875 24.533C95.9875 26.495 96.8815 27.639 98.3875 27.639C99.8935 27.639 100.789 26.495 100.789 24.533ZM104.215 20.005H105.987V21.546H106.03C106.15 21.0649 106.432 20.6397 106.828 20.342C107.225 20.0443 107.712 19.8921 108.208 19.911C108.422 19.91 108.636 19.933 108.845 19.98V21.718C108.574 21.6354 108.292 21.5975 108.01 21.606C107.739 21.5949 107.47 21.6423 107.22 21.7452C106.97 21.848 106.746 22.0037 106.562 22.2016C106.377 22.3995 106.238 22.635 106.154 22.8917C106.07 23.1485 106.042 23.4205 106.073 23.689V29.059H104.215V20.005V20.005ZM117.413 26.4C117.163 28.043 115.563 29.171 113.515 29.171C110.881 29.171 109.246 27.407 109.246 24.576C109.246 21.736 110.89 19.894 113.437 19.894C115.942 19.894 117.517 21.614 117.517 24.36V24.997H111.122V25.109C111.092 25.4422 111.133 25.778 111.243 26.0939C111.354 26.4098 111.53 26.6986 111.761 26.941C111.991 27.1832 112.271 27.3737 112.58 27.4999C112.89 27.6261 113.223 27.6851 113.558 27.673C113.997 27.7148 114.438 27.6134 114.815 27.3839C115.191 27.1545 115.484 26.8094 115.649 26.4H117.413V26.4ZM111.131 23.698H115.657C115.674 23.3984 115.629 23.0984 115.524 22.8172C115.419 22.5359 115.257 22.2794 115.049 22.064C114.84 21.8478 114.59 21.6771 114.312 21.5628C114.035 21.4485 113.737 21.3931 113.437 21.4C113.134 21.398 112.834 21.456 112.554 21.5707C112.273 21.6854 112.019 21.8545 111.804 22.0682C111.59 22.2818 111.42 22.5359 111.304 22.8156C111.189 23.0954 111.13 23.3953 111.131 23.698ZM45.8545 7.294C46.2442 7.26604 46.6352 7.32491 46.9993 7.46635C47.3635 7.60778 47.6917 7.82827 47.9603 8.11191C48.2289 8.39554 48.4312 8.73526 48.5527 9.10655C48.6741 9.47784 48.7116 9.87145 48.6625 10.259C48.6625 12.165 47.6325 13.261 45.8545 13.261H43.6995V7.293H45.8545V7.294ZM44.6265 12.417H45.7515C46.0299 12.4335 46.3084 12.3877 46.5668 12.2831C46.8252 12.1784 47.0571 12.0174 47.2455 11.8119C47.4339 11.6063 47.5741 11.3614 47.6559 11.0948C47.7378 10.8283 47.7591 10.5469 47.7185 10.271C47.7561 9.99625 47.7324 9.7166 47.6493 9.45205C47.5662 9.1875 47.4256 8.94459 47.2377 8.74069C47.0497 8.53679 46.8191 8.37694 46.5621 8.27258C46.3052 8.16822 46.0284 8.12192 45.7515 8.137H44.6265V12.417ZM49.7085 11.007C49.683 10.7126 49.7189 10.4161 49.814 10.1362C49.9091 9.85644 50.0614 9.59947 50.2611 9.38164C50.4608 9.16381 50.7037 8.98989 50.9742 8.8709C51.2447 8.75192 51.537 8.69048 51.8325 8.69048C52.1281 8.69048 52.4204 8.75192 52.6909 8.8709C52.9614 8.98989 53.2042 9.16381 53.404 9.38164C53.6037 9.59947 53.756 9.85644 53.8511 10.1362C53.9462 10.4161 53.9821 10.7126 53.9565 11.007C53.9875 11.3044 53.9557 11.605 53.8631 11.8894C53.7705 12.1737 53.6192 12.4354 53.419 12.6576C53.2188 12.8797 52.9742 13.0573 52.701 13.1789C52.4278 13.3005 52.1321 13.3633 51.833 13.3633C51.534 13.3633 51.2383 13.3005 50.9651 13.1789C50.6919 13.0573 50.4472 12.8797 50.247 12.6576C50.0469 12.4354 49.8956 12.1737 49.803 11.8894C49.7104 11.605 49.6785 11.3044 49.7095 11.007H49.7085ZM53.0425 11.007C53.0425 10.031 52.6035 9.461 51.8345 9.461C51.0615 9.461 50.6275 10.031 50.6275 11.007C50.6275 11.991 51.0615 12.557 51.8345 12.557C52.6045 12.557 53.0425 11.987 53.0425 11.007ZM59.6015 13.261H58.6795L57.7495 9.944H57.6795L56.7525 13.261H55.8395L54.5975 8.758H55.4995L56.3055 12.194H56.3725L57.2985 8.758H58.1505L59.0765 12.194H59.1465L59.9495 8.758H60.8385L59.6015 13.261V13.261ZM61.8815 8.758H62.7375V9.473H62.8035C62.9162 9.21608 63.1063 9.00073 63.3472 8.85697C63.5881 8.71321 63.8679 8.6482 64.1475 8.671C64.3667 8.65435 64.5868 8.68726 64.7915 8.76731C64.9963 8.84735 65.1803 8.97246 65.3301 9.13336C65.4798 9.29426 65.5914 9.48682 65.6566 9.69674C65.7218 9.90667 65.7388 10.1286 65.7065 10.346V13.261H64.8175V10.569C64.8175 9.845 64.5035 9.485 63.8455 9.485C63.6967 9.4776 63.548 9.5026 63.4097 9.55826C63.2715 9.61392 63.1469 9.69893 63.0447 9.80742C62.9425 9.9159 62.8651 10.0453 62.8177 10.1866C62.7704 10.3279 62.7543 10.4778 62.7705 10.626V13.261H61.8815V8.758V8.758ZM67.1225 7H68.0105V13.26H67.1225V7ZM69.2465 11.007C69.217 10.7104 69.2499 10.4109 69.3432 10.1278C69.4365 9.84469 69.588 9.58427 69.7881 9.3633C69.9881 9.14234 70.2323 8.96574 70.5047 8.84487C70.7772 8.72401 71.072 8.66157 71.37 8.66157C71.6681 8.66157 71.9629 8.72401 72.2353 8.84487C72.5078 8.96574 72.7519 9.14234 72.952 9.3633C73.152 9.58427 73.3036 9.84469 73.3969 10.1278C73.4901 10.4109 73.5231 10.7104 73.4935 11.007C73.5215 11.3027 73.4875 11.6011 73.3935 11.8829C73.2995 12.1647 73.1477 12.4238 72.9478 12.6435C72.7479 12.8632 72.5043 13.0388 72.2326 13.1589C71.9609 13.279 71.6671 13.3411 71.37 13.3411C71.073 13.3411 70.7792 13.279 70.5075 13.1589C70.2358 13.0388 69.9922 12.8632 69.7923 12.6435C69.5924 12.4238 69.4406 12.1647 69.3466 11.8829C69.2526 11.6011 69.2185 11.3027 69.2465 11.007V11.007ZM72.5795 11.007C72.5795 10.031 72.1405 9.461 71.3715 9.461C70.5985 9.461 70.1645 10.031 70.1645 11.007C70.1645 11.991 70.5985 12.557 71.3715 12.557C72.1415 12.557 72.5795 11.987 72.5795 11.007ZM74.4285 11.987C74.4285 11.177 75.0325 10.71 76.1045 10.643L77.3245 10.573V10.184C77.3245 9.708 77.0095 9.44 76.4025 9.44C75.9065 9.44 75.5625 9.622 75.4635 9.94H74.6035C74.6935 9.167 75.4215 8.67 76.4435 8.67C77.5715 8.67 78.2085 9.233 78.2085 10.184V13.261H77.3535V12.628H77.2835C77.1408 12.8551 76.9403 13.0402 76.7026 13.1644C76.4649 13.2886 76.1985 13.3475 75.9305 13.335C75.7415 13.3547 75.5504 13.3346 75.3695 13.2759C75.1887 13.2172 75.0222 13.1212 74.8808 12.9942C74.7394 12.8672 74.6261 12.7119 74.5484 12.5384C74.4707 12.3649 74.4302 12.1771 74.4295 11.987H74.4285ZM77.3235 11.603V11.226L76.2235 11.296C75.6035 11.338 75.3235 11.549 75.3235 11.946C75.3235 12.351 75.6745 12.586 76.1575 12.586C76.2991 12.6006 76.4422 12.5865 76.5782 12.5445C76.7142 12.5026 76.8404 12.4337 76.9492 12.342C77.058 12.2502 77.1472 12.1375 77.2115 12.0106C77.2758 11.8836 77.3139 11.745 77.3235 11.603V11.603ZM79.3765 11.007C79.3765 9.584 80.1085 8.683 81.2465 8.683C81.5278 8.6702 81.8069 8.73768 82.0513 8.87757C82.2956 9.01745 82.4951 9.22397 82.6265 9.473H82.6935V7H83.5815V13.26H82.7305V12.55H82.6605C82.5188 12.7975 82.312 13.0015 82.0625 13.1399C81.8131 13.2782 81.5306 13.3457 81.2455 13.335C80.1005 13.335 79.3765 12.434 79.3765 11.007V11.007ZM80.2945 11.007C80.2945 11.962 80.7445 12.537 81.4975 12.537C82.2475 12.537 82.7095 11.954 82.7095 11.011C82.7095 10.073 82.2415 9.481 81.4975 9.481C80.7495 9.481 80.2945 10.061 80.2945 11.007ZM87.2585 11.007C87.2321 10.7122 87.2674 10.4151 87.3621 10.1346C87.4568 9.85417 87.6089 9.59652 87.8087 9.37807C88.0084 9.15962 88.2515 8.98517 88.5224 8.86581C88.7933 8.74645 89.086 8.68481 89.382 8.68481C89.678 8.68481 89.9708 8.74645 90.2417 8.86581C90.5126 8.98517 90.7556 9.15962 90.9554 9.37807C91.1551 9.59652 91.3072 9.85417 91.4019 10.1346C91.4967 10.4151 91.5319 10.7122 91.5055 11.007C91.5365 11.3044 91.5047 11.605 91.4121 11.8894C91.3195 12.1737 91.1682 12.4354 90.968 12.6576C90.7678 12.8797 90.5232 13.0573 90.25 13.1789C89.9768 13.3005 89.6811 13.3633 89.382 13.3633C89.083 13.3633 88.7873 13.3005 88.5141 13.1789C88.2409 13.0573 87.9962 12.8797 87.7961 12.6576C87.5959 12.4354 87.4446 12.1737 87.352 11.8894C87.2594 11.605 87.2275 11.3044 87.2585 11.007ZM90.5915 11.007C90.5915 10.031 90.1525 9.461 89.3835 9.461C88.6105 9.461 88.1765 10.031 88.1765 11.007C88.1765 11.991 88.6115 12.557 89.3835 12.557C90.1535 12.557 90.5915 11.987 90.5915 11.007ZM92.6985 8.758H93.5535V9.473H93.6195C93.7322 9.21608 93.9223 9.00073 94.1632 8.85697C94.4041 8.71321 94.6839 8.6482 94.9635 8.671C95.1827 8.65435 95.4028 8.68726 95.6075 8.76731C95.8123 8.84735 95.9963 8.97246 96.1461 9.13336C96.2958 9.29426 96.4074 9.48682 96.4726 9.69674C96.5378 9.90667 96.5548 10.1286 96.5225 10.346V13.261H95.6335V10.569C95.6335 9.845 95.3195 9.485 94.6615 9.485C94.5127 9.4776 94.364 9.5026 94.2257 9.55826C94.0875 9.61392 93.9629 9.69893 93.8607 9.80742C93.7585 9.9159 93.6811 10.0453 93.6337 10.1866C93.5864 10.3279 93.5703 10.4778 93.5865 10.626V13.261H92.6975V8.758H92.6985ZM101.544 7.637V8.778H102.52V9.527H101.544V11.842C101.544 12.314 101.739 12.52 102.181 12.52C102.294 12.52 102.407 12.513 102.52 12.5V13.24C102.36 13.269 102.198 13.284 102.036 13.286C101.048 13.286 100.654 12.938 100.654 12.07V9.527H99.9395V8.778H100.655V7.637H101.545H101.544ZM103.734 7H104.614V9.482H104.684C104.802 9.22239 104.997 9.00555 105.243 8.86111C105.489 8.71668 105.773 8.65168 106.058 8.675C106.275 8.66303 106.493 8.69932 106.696 8.78129C106.898 8.86326 107.079 8.98888 107.227 9.14918C107.376 9.30948 107.486 9.5005 107.552 9.7086C107.618 9.9167 107.637 10.1367 107.608 10.353V13.261H106.719V10.573C106.719 9.853 106.384 9.489 105.756 9.489C105.603 9.47609 105.449 9.49683 105.305 9.54977C105.161 9.60271 105.03 9.68656 104.922 9.79543C104.814 9.90429 104.731 10.0355 104.679 10.1799C104.627 10.3242 104.608 10.4782 104.622 10.631V13.261H103.734V7V7ZM112.79 12.045C112.67 12.4571 112.408 12.8137 112.051 13.052C111.695 13.2904 111.265 13.3952 110.839 13.348C110.542 13.3559 110.247 13.2991 109.974 13.1815C109.702 13.064 109.458 12.8885 109.26 12.6672C109.062 12.446 108.915 12.1843 108.828 11.9004C108.742 11.6164 108.718 11.317 108.759 11.023C108.719 10.7282 108.744 10.4283 108.83 10.1437C108.917 9.85916 109.063 9.59648 109.26 9.37348C109.457 9.15047 109.699 8.97235 109.971 8.85115C110.243 8.72996 110.537 8.66852 110.835 8.671C112.088 8.671 112.844 9.527 112.844 10.941V11.251H109.664V11.301C109.65 11.4662 109.67 11.6326 109.724 11.7893C109.779 11.9461 109.865 12.0898 109.978 12.2112C110.091 12.3327 110.228 12.4292 110.38 12.4946C110.532 12.56 110.697 12.5928 110.863 12.591C111.075 12.6166 111.291 12.5783 111.482 12.4811C111.672 12.3839 111.83 12.2321 111.935 12.045H112.79V12.045ZM109.664 10.594H111.939C111.949 10.4429 111.928 10.2912 111.877 10.1487C111.826 10.0061 111.746 9.87573 111.641 9.76592C111.537 9.65612 111.411 9.56927 111.271 9.51091C111.131 9.45256 110.981 9.42398 110.83 9.427C110.676 9.42484 110.523 9.45356 110.381 9.51146C110.238 9.56935 110.109 9.65525 110 9.76406C109.891 9.87287 109.805 10.0024 109.748 10.1449C109.69 10.2875 109.661 10.4402 109.664 10.594V10.594Z" fill="white"/>
</g>
<defs>
<clipPath id="clip0_807_150">
<rect width="135" height="40" fill="white"/>
</clipPath>
</defs>
</svg>
