<svg width="26" height="26" viewBox="0 0 26 26" fill="none" xmlns="http://www.w3.org/2000/svg">
<rect width="26" height="26" rx="5" fill="white"/>
<path d="M7.55556 20C7.12778 20 6.76144 19.8478 6.45656 19.5434C6.15219 19.2386 6 18.8722 6 18.4444V7.55556C6 7.12778 6.15219 6.76144 6.45656 6.45656C6.76144 6.15219 7.12778 6 7.55556 6H12.2222V20H7.55556ZM13.7778 20V13H20V18.4444C20 18.8722 19.8478 19.2386 19.5434 19.5434C19.2386 19.8478 18.8722 20 18.4444 20H13.7778ZM13.7778 11.4444V6H18.4444C18.8722 6 19.2386 6.15219 19.5434 6.45656C19.8478 6.76144 20 7.12778 20 7.55556V11.4444H13.7778Z" fill="#003C83"/>
</svg>
