<svg width="72" height="72" viewBox="0 0 72 72" fill="none" xmlns="http://www.w3.org/2000/svg">
<path d="M25.3135 22.0342C25.3135 21.0382 25.8395 20.1182 26.6935 19.6202L34.6205 14.9982C35.0393 14.7538 35.5155 14.625 36.0005 14.625C36.4854 14.625 36.9616 14.7538 37.3805 14.9982L45.3085 19.6202C45.7293 19.867 46.0781 20.2197 46.3202 20.6433C46.5624 21.0668 46.6893 21.5464 46.6885 22.0342V32.8872L36.0015 39.1182L25.3145 32.8872L25.3135 22.0342Z" fill="url(#paint0_linear_815_91)"/>
<path d="M25.313 32.8887C22.217 34.7037 19.108 36.4997 16.006 38.3087C15.5849 38.5554 15.2357 38.9083 14.9934 39.332C14.7511 39.7557 14.6241 40.2356 14.625 40.7237V49.9657C14.625 50.9627 15.151 51.8827 16.005 52.3807L23.932 57.0017C24.351 57.2463 24.8274 57.3752 25.3125 57.3752C25.7976 57.3752 26.2741 57.2463 26.693 57.0017L36.001 51.5817V39.1197L25.313 32.8887V32.8887Z" fill="url(#paint1_linear_815_91)"/>
<path d="M55.994 38.3077C56.415 38.5546 56.7639 38.9074 57.006 39.3312C57.2482 39.7549 57.375 40.2347 57.374 40.7227V49.9657C57.374 50.9617 56.848 51.8817 55.994 52.3797L48.068 57.0007C47.6491 57.2454 47.1727 57.3743 46.6875 57.3743C46.2024 57.3743 45.7259 57.2454 45.307 57.0007L35.999 51.5807V39.1197L46.687 32.8887C49.784 34.7047 52.893 36.5007 55.994 38.3087V38.3077Z" fill="url(#paint2_linear_815_91)"/>
<path style="mix-blend-mode:multiply" d="M25.3135 33.6927C25.3135 33.1947 25.5765 32.7347 26.0035 32.4857L35.3105 27.0597C35.5199 26.9374 35.758 26.873 36.0005 26.873C36.2429 26.873 36.4811 26.9374 36.6905 27.0597L45.9975 32.4857C46.4245 32.7357 46.6875 33.1957 46.6875 33.6927V44.5456C46.6875 45.0436 46.4245 45.5036 45.9975 45.7526L36.6905 51.1787C36.4811 51.3009 36.2429 51.3653 36.0005 51.3653C35.758 51.3653 35.5199 51.3009 35.3105 51.1787L26.0035 45.7526C25.7931 45.6292 25.6187 45.4528 25.4977 45.2411C25.3766 45.0293 25.3131 44.7896 25.3135 44.5456V33.6927Z" fill="url(#paint3_linear_815_91)"/>
<rect x="0.25" y="0.25" width="71.5" height="71.5" rx="9.75" stroke="#676879" stroke-width="0.5"/>
<defs>
<linearGradient id="paint0_linear_815_91" x1="25.3135" y1="20.4402" x2="46.7835" y2="32.7252" gradientUnits="userSpaceOnUse">
<stop stop-color="#FB9000"/>
<stop offset="1" stop-color="#FFCB00"/>
</linearGradient>
<linearGradient id="paint1_linear_815_91" x1="36" y1="39.1087" x2="14.53" y2="51.3937" gradientUnits="userSpaceOnUse">
<stop stop-color="#FB9000"/>
<stop offset="1" stop-color="#FFCB00"/>
</linearGradient>
<linearGradient id="paint2_linear_815_91" x1="36" y1="39.1077" x2="57.47" y2="51.3927" gradientUnits="userSpaceOnUse">
<stop stop-color="#FB9000"/>
<stop offset="1" stop-color="#FFCB00"/>
</linearGradient>
<linearGradient id="paint3_linear_815_91" x1="36.0005" y1="26.8727" x2="36.0005" y2="51.3657" gradientUnits="userSpaceOnUse">
<stop stop-color="#FDAB3D"/>
<stop offset="1" stop-color="#FFCB00" stop-opacity="0.51"/>
</linearGradient>
</defs>
</svg>
