<svg width="72" height="72" viewBox="0 0 72 72" fill="none" xmlns="http://www.w3.org/2000/svg">
<path d="M16.3671 52.5448C13.6581 50.6978 13.0001 47.0628 14.8971 44.4248L30.9041 22.1658C32.0761 20.5358 33.9491 19.6688 35.8491 19.6798C37.7451 19.6718 39.6151 20.5398 40.7851 22.1658L56.7971 44.4318C58.6931 47.0688 58.0351 50.7038 55.3271 52.5508C52.6171 54.3968 48.8851 53.7558 46.9881 51.1188L35.8441 35.6228L24.7051 51.1128C22.8091 53.7498 19.0751 54.3908 16.3671 52.5448V52.5448Z" fill="#6C6CFF"/>
<path d="M16.372 18.7249C13.663 20.5719 13.005 24.2069 14.902 26.8439L30.902 49.0939C32.07 50.7179 33.934 51.5839 35.827 51.5799C37.731 51.5949 39.61 50.7269 40.785 49.0939L56.785 26.8439C58.682 24.2069 58.024 20.5719 55.315 18.7249C52.606 16.8779 48.873 17.5189 46.977 20.1569L35.843 35.6379L24.71 20.1569C22.813 17.5189 19.08 16.8779 16.372 18.7249Z" fill="url(#paint0_linear_815_78)"/>
<path d="M28.5317 25.4697L21.2217 35.6327L28.5317 45.7968L35.8417 35.6327L28.5317 25.4688V25.4697Z" fill="#7E7EFF"/>
<rect x="0.25" y="0.25" width="71.5" height="71.5" rx="9.75" stroke="#676879" stroke-width="0.5"/>
<defs>
<linearGradient id="paint0_linear_815_78" x1="39.285" y1="34.6249" x2="37.456" y2="52.1759" gradientUnits="userSpaceOnUse">
<stop stop-color="#8F8FFF"/>
<stop offset="1" stop-color="#BABAFD"/>
</linearGradient>
</defs>
</svg>
