<svg width="72" height="72" viewBox="0 0 72 72" fill="none" xmlns="http://www.w3.org/2000/svg">
<path fill-rule="evenodd" clip-rule="evenodd" d="M33.7207 14.185C33.7207 13.8806 33.5997 13.5886 33.3843 13.3733C33.1689 13.158 32.8767 13.0371 32.5721 13.0371H15.1486C14.844 13.0371 14.5518 13.158 14.3364 13.3733C14.121 13.5886 14 13.8806 14 14.185V56.8556C14 57.4904 14.5158 58.0036 15.1486 58.0036H57.8514C58.156 58.0036 58.4482 57.8826 58.6636 57.6673C58.879 57.4521 59 57.1601 59 56.8556V39.4277C59 39.1233 58.879 38.8313 58.6636 38.616C58.4482 38.4007 58.156 38.2798 57.8514 38.2798H34.8716C34.7206 38.2798 34.571 38.25 34.4315 38.1922C34.292 38.1344 34.1653 38.0496 34.0586 37.9428C33.9519 37.836 33.8674 37.7092 33.8098 37.5696C33.7522 37.4301 33.7227 37.2806 33.723 37.1296V14.1828L33.7207 14.185Z" fill="#FFD15B"/>
<path d="M37.252 14.1526C37.252 13.0272 38.7047 12.5703 39.3465 13.4954L46.8453 24.8792C46.9234 24.9917 47.0456 25.1137 47.1581 25.1918L58.4502 32.5867C58.6522 32.7258 58.8044 32.9259 58.8844 33.1577C58.9644 33.3895 58.9681 33.6408 58.8948 33.8748C58.8215 34.1088 58.6752 34.3132 58.4772 34.4581C58.2793 34.603 58.0401 34.6807 57.7947 34.6799H38.4029C38.0982 34.6799 37.806 34.559 37.5906 34.3437C37.3752 34.1284 37.2542 33.8364 37.2542 33.532V14.1526H37.252Z" fill="#7517F8"/>
<rect x="0.25" y="0.25" width="71.5" height="71.5" rx="9.75" stroke="#676879" stroke-width="0.5"/>
</svg>
