<svg width="72" height="72" viewBox="0 0 72 72" fill="none" xmlns="http://www.w3.org/2000/svg">
<path d="M44.9569 34.9577C45.0039 35.6217 44.4619 36.1627 43.7999 36.1627H29.3239C28.6619 36.1627 28.1199 36.7027 28.1669 37.3677C28.412 40.8821 29.7348 44.2354 31.9549 46.9707C34.4213 50.0116 37.8698 52.0985 41.7079 52.8727C45.5369 53.6417 49.5109 53.0467 52.9549 51.1887C56.4064 49.3209 59.1043 46.3151 60.5899 42.6827C62.0843 39.0375 62.2813 34.9897 61.1479 31.2167C60.0213 27.4541 57.6285 24.1968 54.3749 21.9967C52.283 20.5838 49.8989 19.6619 47.4007 19.3C44.9024 18.9381 42.3547 19.1455 39.9479 19.9067C38.7534 20.2821 37.6046 20.7899 36.5229 21.4207C39.1285 22.9417 41.2812 25.1303 42.7589 27.7607L42.7639 27.6877C44.0291 29.9167 44.7788 32.4009 44.9579 34.9577H44.9569Z" fill="#00A0A0"/>
<path d="M28.125 53.199C37.4448 53.199 45 45.5713 45 36.162C45 26.7527 37.4448 19.125 28.125 19.125C18.8052 19.125 11.25 26.7527 11.25 36.162C11.25 45.5713 18.8052 53.199 28.125 53.199Z" fill="white"/>
<path d="M28.125 53.199C37.4448 53.199 45 45.5713 45 36.162C45 26.7527 37.4448 19.125 28.125 19.125C18.8052 19.125 11.25 26.7527 11.25 36.162C11.25 45.5713 18.8052 53.199 28.125 53.199Z" fill="url(#paint0_linear_815_82)"/>
<path d="M36.5659 50.919C39.1389 49.4111 41.2717 47.255 42.7516 44.6657C44.2314 42.0764 45.0066 39.1444 44.9999 36.162C45.0094 35.7599 44.995 35.3575 44.9569 34.957C44.9642 35.1132 44.9397 35.2692 44.8848 35.4155C44.8298 35.5619 44.7457 35.6955 44.6374 35.8082C44.5292 35.921 44.3991 36.0105 44.2551 36.0713C44.1111 36.1322 43.9562 36.163 43.7999 36.162H29.3239C28.6619 36.162 28.1199 36.702 28.1669 37.367C28.412 40.8814 29.7348 44.2347 31.9549 46.97C33.2409 48.5535 34.8027 49.8914 36.5649 50.919H36.5659Z" fill="url(#paint1_linear_815_82)"/>
<rect x="0.25" y="0.25" width="71.5" height="71.5" rx="9.75" stroke="#676879" stroke-width="0.5"/>
<defs>
<linearGradient id="paint0_linear_815_82" x1="16.389" y1="25.935" x2="45.113" y2="40.476" gradientUnits="userSpaceOnUse">
<stop stop-color="#00D2D2"/>
<stop offset="1" stop-color="#00D2D2" stop-opacity="0.29"/>
</linearGradient>
<linearGradient id="paint1_linear_815_82" x1="46.8309" y1="44.955" x2="19.9739" y2="39.412" gradientUnits="userSpaceOnUse">
<stop stop-color="#00A0A0"/>
<stop offset="1" stop-color="#00D2D2"/>
</linearGradient>
</defs>
</svg>
