<svg width="72" height="72" viewBox="0 0 72 72" fill="none" xmlns="http://www.w3.org/2000/svg">
<path d="M37.0218 27.9383L36.9358 16.8093C35.9898 16.7093 35.0458 16.7553 34.1008 16.8323C25.7088 17.6203 19.2318 24.4783 19.4078 32.6723C19.5508 39.3063 23.8218 43.6653 27.1618 46.0623C31.9168 49.4743 37.5258 50.8893 43.2878 51.4993C46.6808 51.8573 50.2568 52.0203 52.7778 51.9663L55.6478 51.9103C55.9948 51.9033 56.3178 51.7323 56.5188 51.4503L59.7028 46.9763C59.9808 46.5853 59.9718 46.0573 59.6788 45.6763L56.3618 41.3613C56.2571 41.2255 56.1221 41.1161 55.9675 41.042C55.813 40.9678 55.6432 40.9309 55.4718 40.9342L52.5418 40.9903C50.6228 41.0313 47.5648 40.9033 44.5708 40.5863C40.8458 40.1923 37.1548 39.4953 34.0608 37.2753C32.0488 35.8313 30.9228 34.2392 30.8838 32.4272C30.8368 30.2512 32.3808 28.3963 34.4958 27.8793C35.3218 27.6773 36.2058 27.6793 37.0218 27.9383V27.9383Z" fill="url(#paint0_linear_815_87)"/>
<path fill-rule="evenodd" clip-rule="evenodd" d="M35.464 26.6453C35.477 27.2493 35.984 27.7163 36.578 27.8353C38.713 28.2603 40.335 30.0483 40.382 32.2233C40.421 34.0363 39.364 35.6753 37.417 37.2033C34.388 39.5793 30.795 40.4033 27.058 40.9613C24.081 41.4063 21.03 41.6663 19.112 41.7073L16.316 41.7503C16.0889 41.7538 15.8685 41.8277 15.6852 41.9619C15.502 42.0961 15.3649 42.2839 15.293 42.4993L12.34 51.3543C12.2848 51.5206 12.2703 51.6976 12.2976 51.8706C12.325 52.0437 12.3935 52.2076 12.4973 52.3487C12.6012 52.4897 12.7374 52.6038 12.8944 52.6814C13.0515 52.7589 13.2249 52.7977 13.4 52.7943L17.518 52.7223L19.348 52.6823C21.869 52.6293 25.434 52.3123 28.808 51.8093C31.891 51.3493 35.611 50.6223 38.168 49.4733L38.175 49.4713C40.505 48.5373 42.715 47.2333 44.686 45.6873C47.92 43.1493 52 38.6113 51.858 31.9773C51.68 23.7353 44.836 17.1323 36.349 16.7743C35.744 16.7493 35.262 17.2543 35.275 17.8583L35.465 26.6453H35.464Z" fill="url(#paint1_linear_815_87)"/>
<path opacity="0.6" d="M49.1736 40.9323C47.6362 40.8623 46.1012 40.7469 44.5706 40.5863C41.5076 40.2623 38.4686 39.7333 35.7646 38.3223C33.1166 39.8623 30.1356 40.5023 27.0576 40.9623C25.5353 41.1883 24.0066 41.3694 22.4736 41.5053C23.9076 43.4553 25.6326 44.9653 27.1616 46.0623C29.9246 48.0453 32.9766 49.3523 36.1786 50.2213C36.8555 50.0096 37.5199 49.7599 38.1686 49.4733L38.1736 49.4713C40.5036 48.5373 42.7146 47.2333 44.6856 45.6873C46.1656 44.5253 47.8256 42.9433 49.1736 40.9323V40.9323Z" fill="#019152"/>
<rect x="0.25" y="0.25" width="71.5" height="71.5" rx="9.75" stroke="#676879" stroke-width="0.5"/>
<defs>
<linearGradient id="paint0_linear_815_87" x1="27.9738" y1="31.2513" x2="38.0828" y2="48.4223" gradientUnits="userSpaceOnUse">
<stop stop-color="#00C875"/>
<stop offset="1" stop-color="#2EAE67"/>
</linearGradient>
<linearGradient id="paint1_linear_815_87" x1="38.601" y1="33.5063" x2="5.53801" y2="53.9383" gradientUnits="userSpaceOnUse">
<stop stop-color="#00CA72"/>
<stop offset="1" stop-color="#C0FFE5"/>
</linearGradient>
</defs>
</svg>
