<svg width="50" height="50" viewBox="0 0 50 50" fill="none" xmlns="http://www.w3.org/2000/svg">
<rect width="50" height="50" rx="10" fill="white"/>
<path d="M38.7393 20.9369L38.717 20.9147C38.7152 20.9134 38.7138 20.9117 38.7129 20.9098L24.8034 7L10.894 20.9095C10.8924 20.9111 10.8899 20.9143 10.8899 20.9143L10.867 20.9365C8.74005 23.0754 7.38908 25.8639 7.02883 28.8587C6.66859 31.8536 7.31975 34.8829 8.87879 37.4652C10.4378 40.0475 12.8153 42.0346 15.6332 43.1104C18.4512 44.1862 21.5479 44.2893 24.431 43.403C24.6737 43.3288 24.933 43.3288 25.1756 43.403C28.0586 44.289 31.1551 44.1859 33.9728 43.1099C36.7906 42.0339 39.1678 40.047 40.7267 37.4648C42.2857 34.8827 42.9369 31.8536 42.5768 28.8589C42.2167 25.8642 40.8659 23.0758 38.7393 20.9369ZM15.84 30.1093C15.7723 30.177 15.7186 30.2575 15.682 30.3458C15.6454 30.4342 15.6265 30.529 15.6265 30.6247C15.6513 33.0797 16.3451 35.4813 17.6332 37.5714C17.6625 37.6188 17.676 37.6743 17.6719 37.7298C17.6677 37.7853 17.6461 37.8381 17.6101 37.8806C17.5741 37.9232 17.5256 37.9532 17.4715 37.9665C17.4174 37.9798 17.3605 37.9756 17.3089 37.9546C16.3405 37.5473 15.4608 36.9551 14.7189 36.2114C13.1985 34.6907 12.3437 32.6287 12.3424 30.4784C12.341 28.328 13.1931 26.2649 14.7115 24.7424L24.8034 14.6515L34.8947 24.7424C36.4134 26.2647 37.2658 28.3278 37.2644 30.4784C37.2631 32.6287 36.4082 34.6907 34.8877 36.2114C34.1458 36.9551 33.2661 37.5473 32.2979 37.9546C32.2461 37.9756 32.1892 37.9798 32.1351 37.9665C32.0811 37.9532 32.0326 37.923 31.9965 37.8806C31.9606 37.8381 31.9388 37.7853 31.9347 37.7296C31.9306 37.6741 31.9441 37.6186 31.9733 37.5712C33.2618 35.4813 33.9559 33.0797 33.9811 30.6247C33.9811 30.529 33.9621 30.4342 33.9252 30.3456C33.8884 30.2571 33.8345 30.1768 33.7666 30.1091L28.9934 25.0461C28.9458 25.0065 28.886 24.9847 28.824 24.9847C28.7622 24.9847 28.7023 25.0065 28.6548 25.0461C28.6072 25.0857 28.5753 25.1408 28.5641 25.2017C28.553 25.2626 28.5636 25.3252 28.5941 25.3791C30.448 28.7339 28.8538 33.5526 26.1954 36.2114L26.1814 36.2254C25.8144 36.5884 25.3191 36.7919 24.803 36.7917C24.2869 36.7915 23.7916 36.5877 23.425 36.2245L23.4121 36.2114C20.7527 33.5526 19.1593 28.7344 21.0135 25.3798C21.044 25.326 21.0546 25.2633 21.0435 25.2024C21.0324 25.1415 21.0003 25.0864 20.9528 25.0469C20.9053 25.0072 20.8454 24.9854 20.7835 24.9854C20.7217 24.9854 20.6618 25.0072 20.6143 25.0469L15.84 30.1093Z" fill="#003C83"/>
</svg>
