<svg width="131" height="30" viewBox="0 0 131 30" fill="none" xmlns="http://www.w3.org/2000/svg">
<g clip-path="url(#clip0_805_137)">
<path d="M20 2.5H5C2.23858 2.5 0 4.73858 0 7.5V22.5C0 25.2614 2.23858 27.5 5 27.5H20C22.7614 27.5 25 25.2614 25 22.5V7.5C25 4.73858 22.7614 2.5 20 2.5Z" fill="white"/>
<path d="M19.3695 12.9684L19.3583 12.9573C19.3574 12.9567 19.3567 12.9558 19.3563 12.9549L12.4015 6L5.44682 12.9548C5.44602 12.9556 5.44477 12.9572 5.44477 12.9572L5.43332 12.9683C4.36984 14.0377 3.69436 15.4319 3.51423 16.9293C3.33411 18.4268 3.65969 19.9414 4.43921 21.2326C5.21872 22.5237 6.40747 23.5173 7.81642 24.0552C9.22542 24.5931 10.7738 24.6446 12.2153 24.2015C12.3367 24.1644 12.4663 24.1644 12.5876 24.2015C14.0291 24.6445 15.5774 24.593 16.9862 24.055C18.3951 23.517 19.5837 22.5235 20.3632 21.2324C21.1427 19.9414 21.4683 18.4268 21.2882 16.9295C21.1082 15.4321 20.4328 14.0379 19.3695 12.9684ZM7.91982 17.5547C7.88597 17.5885 7.85912 17.6288 7.84082 17.6729C7.82252 17.7171 7.81307 17.7645 7.81307 17.8124C7.82547 19.0399 8.17237 20.2406 8.81642 21.2857C8.83107 21.3094 8.83782 21.3372 8.83577 21.3649C8.83367 21.3927 8.82287 21.419 8.80487 21.4403C8.78687 21.4616 8.76262 21.4766 8.73557 21.4832C8.70852 21.4899 8.68007 21.4878 8.65427 21.4773C8.17007 21.2737 7.73022 20.9775 7.35927 20.6057C6.59907 19.8453 6.17167 18.8143 6.17102 17.7392C6.17032 16.664 6.59637 15.6324 7.35557 14.8712L12.4015 9.82575L17.4472 14.8712C18.2065 15.6323 18.6327 16.6639 18.632 17.7392C18.6314 18.8143 18.2039 19.8453 17.4437 20.6057C17.0727 20.9775 16.6329 21.2737 16.1488 21.4773C16.1229 21.4878 16.0944 21.4899 16.0674 21.4832C16.0404 21.4766 16.0161 21.4615 15.9981 21.4403C15.9801 21.419 15.9692 21.3926 15.9672 21.3648C15.9651 21.337 15.9719 21.3093 15.9865 21.2856C16.6307 20.2407 16.9778 19.0399 16.9904 17.8124C16.9904 17.7645 16.9809 17.7171 16.9624 17.6728C16.944 17.6286 16.9171 17.5884 16.8831 17.5546L14.4965 15.0231C14.4727 15.0033 14.4428 14.9923 14.4118 14.9923C14.3809 14.9923 14.351 15.0033 14.3272 15.0231C14.3034 15.0429 14.2875 15.0704 14.2819 15.1009C14.2763 15.1313 14.2816 15.1626 14.2969 15.1896C15.2238 16.867 14.4267 19.2763 13.0975 20.6057L13.0905 20.6127C12.907 20.7942 12.6594 20.8959 12.4013 20.8958C12.1433 20.8957 11.8956 20.7938 11.7123 20.6122L11.7059 20.6057C10.3762 19.2763 9.57947 16.8672 10.5066 15.1899C10.5218 15.163 10.5271 15.1317 10.5216 15.1012C10.516 15.0708 10.5 15.0432 10.4762 15.0234C10.4525 15.0036 10.4225 14.9927 10.3916 14.9927C10.3607 14.9927 10.3307 15.0036 10.307 15.0234L7.91982 17.5547Z" fill="#003C83"/>
</g>
<path d="M40.88 7.96V10.7H35.16V13.66H39.44V16.32H35.16V22H31.74V7.96H40.88ZM44.3975 9.68C43.7975 9.68 43.3042 9.50667 42.9175 9.16C42.5442 8.8 42.3575 8.36 42.3575 7.84C42.3575 7.30667 42.5442 6.86667 42.9175 6.52C43.3042 6.16 43.7975 5.98 44.3975 5.98C44.9842 5.98 45.4642 6.16 45.8375 6.52C46.2242 6.86667 46.4175 7.30667 46.4175 7.84C46.4175 8.36 46.2242 8.8 45.8375 9.16C45.4642 9.50667 44.9842 9.68 44.3975 9.68ZM46.0975 10.84V22H42.6775V10.84H46.0975ZM51.9959 12.7C52.3959 12.0867 52.8959 11.6067 53.4959 11.26C54.0959 10.9 54.7626 10.72 55.4959 10.72V14.34H54.5559C53.7026 14.34 53.0626 14.5267 52.6359 14.9C52.2093 15.26 51.9959 15.9 51.9959 16.82V22H48.5759V10.84H51.9959V12.7ZM67.6506 16.24C67.6506 16.56 67.6306 16.8933 67.5906 17.24H59.8506C59.904 17.9333 60.124 18.4667 60.5106 18.84C60.9106 19.2 61.3973 19.38 61.9706 19.38C62.824 19.38 63.4173 19.02 63.7506 18.3H67.3906C67.204 19.0333 66.864 19.6933 66.3706 20.28C65.8906 20.8667 65.284 21.3267 64.5506 21.66C63.8173 21.9933 62.9973 22.16 62.0906 22.16C60.9973 22.16 60.024 21.9267 59.1706 21.46C58.3173 20.9933 57.6506 20.3267 57.1706 19.46C56.6906 18.5933 56.4506 17.58 56.4506 16.42C56.4506 15.26 56.684 14.2467 57.1506 13.38C57.6306 12.5133 58.2973 11.8467 59.1506 11.38C60.004 10.9133 60.984 10.68 62.0906 10.68C63.1706 10.68 64.1306 10.9067 64.9706 11.36C65.8106 11.8133 66.464 12.46 66.9306 13.3C67.4106 14.14 67.6506 15.12 67.6506 16.24ZM64.1506 15.34C64.1506 14.7533 63.9506 14.2867 63.5506 13.94C63.1506 13.5933 62.6506 13.42 62.0506 13.42C61.4773 13.42 60.9906 13.5867 60.5906 13.92C60.204 14.2533 59.964 14.7267 59.8706 15.34H64.1506ZM72.8748 12.42C73.1948 11.9 73.6548 11.48 74.2548 11.16C74.8548 10.84 75.5415 10.68 76.3148 10.68C77.2348 10.68 78.0682 10.9133 78.8148 11.38C79.5615 11.8467 80.1482 12.5133 80.5748 13.38C81.0148 14.2467 81.2348 15.2533 81.2348 16.4C81.2348 17.5467 81.0148 18.56 80.5748 19.44C80.1482 20.3067 79.5615 20.98 78.8148 21.46C78.0682 21.9267 77.2348 22.16 76.3148 22.16C75.5282 22.16 74.8415 22.0067 74.2548 21.7C73.6682 21.38 73.2082 20.96 72.8748 20.44V22H69.4548V7.2H72.8748V12.42ZM77.7548 16.4C77.7548 15.5467 77.5148 14.88 77.0348 14.4C76.5682 13.9067 75.9882 13.66 75.2948 13.66C74.6148 13.66 74.0348 13.9067 73.5548 14.4C73.0882 14.8933 72.8548 15.5667 72.8548 16.42C72.8548 17.2733 73.0882 17.9467 73.5548 18.44C74.0348 18.9333 74.6148 19.18 75.2948 19.18C75.9748 19.18 76.5548 18.9333 77.0348 18.44C77.5148 17.9333 77.7548 17.2533 77.7548 16.4ZM88.1091 22.16C87.0157 22.16 86.0291 21.9267 85.1491 21.46C84.2824 20.9933 83.5957 20.3267 83.0891 19.46C82.5957 18.5933 82.3491 17.58 82.3491 16.42C82.3491 15.2733 82.6024 14.2667 83.1091 13.4C83.6157 12.52 84.3091 11.8467 85.1891 11.38C86.0691 10.9133 87.0557 10.68 88.1491 10.68C89.2424 10.68 90.2291 10.9133 91.1091 11.38C91.9891 11.8467 92.6824 12.52 93.1891 13.4C93.6957 14.2667 93.9491 15.2733 93.9491 16.42C93.9491 17.5667 93.6891 18.58 93.1691 19.46C92.6624 20.3267 91.9624 20.9933 91.0691 21.46C90.1891 21.9267 89.2024 22.16 88.1091 22.16ZM88.1091 19.2C88.7624 19.2 89.3157 18.96 89.7691 18.48C90.2357 18 90.4691 17.3133 90.4691 16.42C90.4691 15.5267 90.2424 14.84 89.7891 14.36C89.3491 13.88 88.8024 13.64 88.1491 13.64C87.4824 13.64 86.9291 13.88 86.4891 14.36C86.0491 14.8267 85.8291 15.5133 85.8291 16.42C85.8291 17.3133 86.0424 18 86.4691 18.48C86.9091 18.96 87.4557 19.2 88.1091 19.2ZM95.0834 16.4C95.0834 15.2533 95.2968 14.2467 95.7234 13.38C96.1634 12.5133 96.7568 11.8467 97.5034 11.38C98.2501 10.9133 99.0834 10.68 100.003 10.68C100.79 10.68 101.477 10.84 102.063 11.16C102.663 11.48 103.123 11.9 103.443 12.42V10.84H106.863V22H103.443V20.42C103.11 20.94 102.643 21.36 102.043 21.68C101.457 22 100.77 22.16 99.9834 22.16C99.0768 22.16 98.2501 21.9267 97.5034 21.46C96.7568 20.98 96.1634 20.3067 95.7234 19.44C95.2968 18.56 95.0834 17.5467 95.0834 16.4ZM103.443 16.42C103.443 15.5667 103.203 14.8933 102.723 14.4C102.257 13.9067 101.683 13.66 101.003 13.66C100.323 13.66 99.7434 13.9067 99.2634 14.4C98.7968 14.88 98.5634 15.5467 98.5634 16.4C98.5634 17.2533 98.7968 17.9333 99.2634 18.44C99.7434 18.9333 100.323 19.18 101.003 19.18C101.683 19.18 102.257 18.9333 102.723 18.44C103.203 17.9467 103.443 17.2733 103.443 16.42ZM112.758 12.7C113.158 12.0867 113.658 11.6067 114.258 11.26C114.858 10.9 115.524 10.72 116.258 10.72V14.34H115.318C114.464 14.34 113.824 14.5267 113.398 14.9C112.971 15.26 112.758 15.9 112.758 16.82V22H109.338V10.84H112.758V12.7ZM117.212 16.4C117.212 15.2533 117.426 14.2467 117.852 13.38C118.292 12.5133 118.886 11.8467 119.632 11.38C120.379 10.9133 121.212 10.68 122.132 10.68C122.866 10.68 123.532 10.8333 124.132 11.14C124.746 11.4467 125.226 11.86 125.572 12.38V7.2H128.992V22H125.572V20.4C125.252 20.9333 124.792 21.36 124.192 21.68C123.606 22 122.919 22.16 122.132 22.16C121.212 22.16 120.379 21.9267 119.632 21.46C118.886 20.98 118.292 20.3067 117.852 19.44C117.426 18.56 117.212 17.5467 117.212 16.4ZM125.572 16.42C125.572 15.5667 125.332 14.8933 124.852 14.4C124.386 13.9067 123.812 13.66 123.132 13.66C122.452 13.66 121.872 13.9067 121.392 14.4C120.926 14.88 120.692 15.5467 120.692 16.4C120.692 17.2533 120.926 17.9333 121.392 18.44C121.872 18.9333 122.452 19.18 123.132 19.18C123.812 19.18 124.386 18.9333 124.852 18.44C125.332 17.9467 125.572 17.2733 125.572 16.42Z" fill="#323338"/>
<defs>
<clipPath id="clip0_805_137">
<rect width="25" height="25" fill="white" transform="translate(0 2.5)"/>
</clipPath>
</defs>
</svg>
