<svg width="26" height="26" viewBox="0 0 26 26" fill="none" xmlns="http://www.w3.org/2000/svg">
<rect width="26" height="26" rx="5" fill="white"/>
<path d="M13 14.625C13.8975 14.625 14.625 13.8975 14.625 13C14.625 12.1025 13.8975 11.375 13 11.375C12.1025 11.375 11.375 12.1025 11.375 13C11.375 13.8975 12.1025 14.625 13 14.625Z" fill="#003C83"/>
<path d="M19.9256 11.8212L19.3726 10.0581C19.3129 9.85429 19.2127 9.66462 19.0781 9.50038C18.9435 9.33613 18.7771 9.20067 18.589 9.10207C18.4008 9.00347 18.1948 8.94376 17.983 8.92649C17.7713 8.90923 17.5583 8.93476 17.3566 9.00157L17.1186 9.07853C16.9322 9.14014 16.7336 9.15577 16.5398 9.12409C16.346 9.09242 16.1628 9.01437 16.0057 8.89662L15.9287 8.84065C15.7754 8.72336 15.6518 8.57171 15.5679 8.39792C15.484 8.22413 15.4421 8.03306 15.4457 7.84012V7.64422C15.4491 7.20484 15.2779 6.78208 14.9697 6.46878C14.8231 6.32076 14.6487 6.20316 14.4565 6.12271C14.2643 6.04226 14.0581 6.00056 13.8497 6H12.0648C11.6365 6.00553 11.2278 6.17995 10.9275 6.48528C10.6273 6.7906 10.4599 7.20212 10.4618 7.63022V7.79814C10.4611 8.00124 10.4149 8.20159 10.3264 8.38444C10.238 8.56729 10.1096 8.72797 9.95083 8.85464L9.85983 8.92461C9.68437 9.05728 9.47916 9.14511 9.26201 9.18047C9.04487 9.21583 8.82237 9.19765 8.61386 9.12751C8.42236 9.06127 8.2194 9.03456 8.01727 9.04899C7.81513 9.06342 7.61803 9.1187 7.43789 9.21147C7.25033 9.30452 7.08394 9.43515 6.94907 9.59524C6.81419 9.75533 6.71372 9.94145 6.65391 10.142L6.07993 11.9612C5.94682 12.3713 5.98096 12.8174 6.17492 13.2025C6.36889 13.5876 6.70702 13.8808 7.1159 14.0182H7.2279C7.41651 14.0888 7.5858 14.2029 7.72202 14.3513C7.85824 14.4996 7.95754 14.6779 8.01188 14.8718L8.05388 14.9837C8.13191 15.1979 8.158 15.4275 8.13001 15.6538C8.10203 15.88 8.02076 16.0964 7.89288 16.2851C7.63404 16.6374 7.52486 17.0777 7.58909 17.5101C7.65332 17.9425 7.88577 18.332 8.23587 18.594L9.68483 19.6925C9.95919 19.8919 10.2906 19.9974 10.6298 19.9933C10.7206 20.0022 10.812 20.0022 10.9028 19.9933C11.1129 19.9527 11.3124 19.8697 11.4894 19.7494C11.6663 19.6291 11.8168 19.474 11.9318 19.2937L12.0928 19.0628C12.2057 18.9009 12.3551 18.7677 12.529 18.6741C12.7029 18.5806 12.8963 18.5291 13.0937 18.524C13.3006 18.5189 13.5054 18.5663 13.689 18.6618C13.8726 18.7572 14.0291 18.8976 14.1437 19.0698L14.2277 19.1887C14.3471 19.3663 14.5015 19.5175 14.6815 19.6331C14.8616 19.7487 15.0634 19.8263 15.2745 19.8611C15.4857 19.8958 15.7017 19.887 15.9093 19.8351C16.1169 19.7833 16.3117 19.6895 16.4817 19.5595L17.9026 18.496C18.2386 18.2352 18.462 17.8558 18.5271 17.4356C18.5922 17.0154 18.494 16.5863 18.2526 16.2361L18.0706 15.9702C17.9612 15.8012 17.8895 15.6106 17.8605 15.4114C17.8315 15.2121 17.8459 15.009 17.9026 14.8158C17.9604 14.609 18.0678 14.4194 18.2154 14.2634C18.3629 14.1073 18.5463 13.9896 18.7496 13.9202L18.8896 13.8712C19.2947 13.7307 19.6292 13.4383 19.8226 13.0558C20.0159 12.6732 20.0528 12.2305 19.9256 11.8212ZM13.0027 15.4455C12.5182 15.4455 12.0445 15.3019 11.6416 15.0328C11.2387 14.7637 10.9247 14.3813 10.7393 13.9338C10.5539 13.4863 10.5054 12.9939 10.5999 12.5189C10.6944 12.0439 10.9278 11.6076 11.2704 11.2651C11.613 10.9226 12.0495 10.6894 12.5248 10.5949C13 10.5004 13.4926 10.5489 13.9403 10.7342C14.388 10.9196 14.7706 11.2335 15.0398 11.6362C15.309 12.0389 15.4527 12.5123 15.4527 12.9967C15.4527 13.6461 15.1946 14.269 14.7351 14.7283C14.2757 15.1875 13.6525 15.4455 13.0027 15.4455Z" fill="#003C83"/>
</svg>
