<svg width="26" height="26" viewBox="0 0 26 26" fill="none" xmlns="http://www.w3.org/2000/svg">
<rect width="26" height="26" rx="5" fill="white"/>
<path d="M8.33333 6C7.71449 6 7.121 6.24583 6.68342 6.68342C6.24583 7.121 6 7.71449 6 8.33333V9.5C6 10.1188 6.24583 10.7123 6.68342 11.1499C7.121 11.5875 7.71449 11.8333 8.33333 11.8333H17.6667C18.2855 11.8333 18.879 11.5875 19.3166 11.1499C19.7542 10.7123 20 10.1188 20 9.5V8.33333C20 7.71449 19.7542 7.121 19.3166 6.68342C18.879 6.24583 18.2855 6 17.6667 6H8.33333ZM8.33333 14.1667C7.71449 14.1667 7.121 14.4125 6.68342 14.8501C6.24583 15.2877 6 15.8812 6 16.5V17.6667C6 18.2855 6.24583 18.879 6.68342 19.3166C7.121 19.7542 7.71449 20 8.33333 20H17.6667C18.2855 20 18.879 19.7542 19.3166 19.3166C19.7542 18.879 20 18.2855 20 17.6667V16.5C20 15.8812 19.7542 15.2877 19.3166 14.8501C18.879 14.4125 18.2855 14.1667 17.6667 14.1667H8.33333Z" fill="#003C83"/>
</svg>
