<svg width="26" height="26" viewBox="0 0 26 26" fill="none" xmlns="http://www.w3.org/2000/svg">
<rect width="26" height="26" rx="5" fill="white"/>
<path d="M10.5708 6.875H9.25C8.91848 6.875 8.60054 7.01328 8.36612 7.25942C8.1317 7.50556 8 7.8394 8 8.1875V18.6875C8 19.0356 8.1317 19.3694 8.36612 19.6156C8.60054 19.8617 8.91848 20 9.25 20H16.75C17.0815 20 17.3995 19.8617 17.6339 19.6156C17.8683 19.3694 18 19.0356 18 18.6875V8.1875C18 7.8394 17.8683 7.50556 17.6339 7.25942C17.3995 7.01328 17.0815 6.875 16.75 6.875H15.4292C15.343 6.61899 15.1833 6.39736 14.9721 6.24065C14.7609 6.08394 14.5086 5.99986 14.25 6H11.75C11.4914 5.99986 11.2391 6.08394 11.0279 6.24065C10.8167 6.39736 10.657 6.61899 10.5708 6.875V6.875ZM11.75 6.875H14.25C14.3605 6.875 14.4665 6.92109 14.5446 7.00314C14.6228 7.08519 14.6667 7.19647 14.6667 7.3125C14.6667 7.42853 14.6228 7.53981 14.5446 7.62186C14.4665 7.70391 14.3605 7.75 14.25 7.75H11.75C11.6395 7.75 11.5335 7.70391 11.4554 7.62186C11.3772 7.53981 11.3333 7.42853 11.3333 7.3125C11.3333 7.19647 11.3772 7.08519 11.4554 7.00314C11.5335 6.92109 11.6395 6.875 11.75 6.875V6.875ZM12.1667 11.6875C12.1667 11.5715 12.2106 11.4602 12.2887 11.3781C12.3668 11.2961 12.4728 11.25 12.5833 11.25H15.5C15.6105 11.25 15.7165 11.2961 15.7946 11.3781C15.8728 11.4602 15.9167 11.5715 15.9167 11.6875C15.9167 11.8035 15.8728 11.9148 15.7946 11.9969C15.7165 12.0789 15.6105 12.125 15.5 12.125H12.5833C12.4728 12.125 12.3668 12.0789 12.2887 11.9969C12.2106 11.9148 12.1667 11.8035 12.1667 11.6875ZM12.1667 14.3125C12.1667 14.1965 12.2106 14.0852 12.2887 14.0031C12.3668 13.9211 12.4728 13.875 12.5833 13.875H15.5C15.6105 13.875 15.7165 13.9211 15.7946 14.0031C15.8728 14.0852 15.9167 14.1965 15.9167 14.3125C15.9167 14.4285 15.8728 14.5398 15.7946 14.6219C15.7165 14.7039 15.6105 14.75 15.5 14.75H12.5833C12.4728 14.75 12.3668 14.7039 12.2887 14.6219C12.2106 14.5398 12.1667 14.4285 12.1667 14.3125ZM12.1667 16.9375C12.1667 16.8215 12.2106 16.7102 12.2887 16.6281C12.3668 16.5461 12.4728 16.5 12.5833 16.5H15.5C15.6105 16.5 15.7165 16.5461 15.7946 16.6281C15.8728 16.7102 15.9167 16.8215 15.9167 16.9375C15.9167 17.0535 15.8728 17.1648 15.7946 17.2469C15.7165 17.3289 15.6105 17.375 15.5 17.375H12.5833C12.4728 17.375 12.3668 17.3289 12.2887 17.2469C12.2106 17.1648 12.1667 17.0535 12.1667 16.9375ZM11.3333 11.6875C11.3333 11.8615 11.2675 12.0285 11.1503 12.1515C11.0331 12.2746 10.8741 12.3438 10.7083 12.3438C10.5426 12.3438 10.3836 12.2746 10.2664 12.1515C10.1492 12.0285 10.0833 11.8615 10.0833 11.6875C10.0833 11.5135 10.1492 11.3465 10.2664 11.2235C10.3836 11.1004 10.5426 11.0312 10.7083 11.0312C10.8741 11.0312 11.0331 11.1004 11.1503 11.2235C11.2675 11.3465 11.3333 11.5135 11.3333 11.6875ZM11.3333 14.3125C11.3333 14.4865 11.2675 14.6535 11.1503 14.7765C11.0331 14.8996 10.8741 14.9688 10.7083 14.9688C10.5426 14.9688 10.3836 14.8996 10.2664 14.7765C10.1492 14.6535 10.0833 14.4865 10.0833 14.3125C10.0833 14.1385 10.1492 13.9715 10.2664 13.8485C10.3836 13.7254 10.5426 13.6562 10.7083 13.6562C10.8741 13.6562 11.0331 13.7254 11.1503 13.8485C11.2675 13.9715 11.3333 14.1385 11.3333 14.3125ZM10.7083 17.5938C10.5426 17.5938 10.3836 17.5246 10.2664 17.4015C10.1492 17.2785 10.0833 17.1115 10.0833 16.9375C10.0833 16.7635 10.1492 16.5965 10.2664 16.4735C10.3836 16.3504 10.5426 16.2812 10.7083 16.2812C10.8741 16.2812 11.0331 16.3504 11.1503 16.4735C11.2675 16.5965 11.3333 16.7635 11.3333 16.9375C11.3333 17.1115 11.2675 17.2785 11.1503 17.4015C11.0331 17.5246 10.8741 17.5938 10.7083 17.5938Z" fill="#003C83"/>
</svg>
